<svg width="92" height="92" viewBox="0 0 92 92" fill="none" xmlns="http://www.w3.org/2000/svg">
<circle cx="46" cy="46" r="43" fill="#D9D9D9" stroke="black" stroke-width="6"/>
<path d="M52.4685 55.74C49.3485 55.58 46.7685 55.5 44.7285 55.5C42.6885 55.5 40.8885 55.54 39.3285 55.62C38.8485 56.86 38.2485 58.72 37.5285 61.2C36.8485 63.64 36.3285 65.38 35.9685 66.42C35.2485 68.54 33.9285 69.6 32.0085 69.6C30.8885 69.6 29.9885 69.26 29.3085 68.58C28.6285 67.9 28.2885 66.96 28.2885 65.76C28.2885 64.52 29.3285 61.2 31.4085 55.8C29.3285 55.32 28.2885 54.12 28.2885 52.2C28.2885 49.6 30.1485 48.3 33.8685 48.3C34.4285 46.58 35.5085 43.48 37.1085 39C38.7085 34.52 39.7285 31.6 40.1685 30.24C40.6485 28.84 41.0085 27.84 41.2485 27.24C41.5285 26.64 41.8885 26 42.3285 25.32C43.1685 24.04 44.4285 23.4 46.1085 23.4C47.3485 23.4 48.4485 23.78 49.4085 24.54C50.0085 25.02 50.5485 25.96 51.0285 27.36C51.5085 28.72 51.9885 30.16 52.4685 31.68C52.9885 33.16 53.5285 34.7 54.0885 36.3C54.6885 37.86 55.4885 40.14 56.4885 43.14C57.5285 46.14 58.1285 47.86 58.2885 48.3C58.4885 48.26 58.8485 48.24 59.3685 48.24C60.7285 48.24 61.8485 48.64 62.7285 49.44C63.6085 50.2 64.0485 51.14 64.0485 52.26C64.0485 54.1 62.9285 55.32 60.6885 55.92C62.9285 61.72 64.0485 65.08 64.0485 66C64.0485 66.92 63.6685 67.76 62.9085 68.52C62.1885 69.24 61.2285 69.6 60.0285 69.6C58.2285 69.6 56.9085 68.6 56.0685 66.6C55.8685 66.12 54.6685 62.5 52.4685 55.74ZM41.4885 48.72C42.4885 48.8 43.9685 48.84 45.9285 48.84C47.8885 48.84 49.3685 48.8 50.3685 48.72C47.7685 39.28 46.3085 34.56 45.9885 34.56C45.7085 34.56 44.5485 38.1 42.5085 45.18L41.4885 48.72Z" fill="black"/>
</svg>
