<svg width="259" height="91" viewBox="0 0 259 91" fill="none" xmlns="http://www.w3.org/2000/svg">
<path d="M247.008 90.1254C247.63 90.6731 248.578 90.6133 249.125 89.9917L258.051 79.8634C258.599 79.2419 258.539 78.2941 257.917 77.7463C257.296 77.1986 256.348 77.2584 255.8 77.88L247.866 86.8829L238.863 78.949C238.242 78.4012 237.294 78.4611 236.746 79.0826C236.199 79.7041 236.258 80.652 236.88 81.1997L247.008 90.1254ZM123.461 25.7753C170.529 10.5706 200.663 18.1944 219.287 33.4825C238.001 48.8437 245.438 72.2151 246.503 89.0945L249.497 88.9055C248.397 71.474 240.735 47.207 221.191 31.1637C201.557 15.0474 170.273 7.50061 122.539 22.9206L123.461 25.7753Z" fill="white"/>
<path d="M6.818 9.96C7.38733 10.0813 7.84467 10.366 8.19 10.814C8.53533 11.2527 8.708 11.7567 8.708 12.326C8.708 13.1473 8.41867 13.8007 7.84 14.286C7.27067 14.762 6.47267 15 5.446 15H0.868V5.172H5.292C6.29067 5.172 7.07 5.40067 7.63 5.858C8.19933 6.31533 8.484 6.936 8.484 7.72C8.484 8.29867 8.33 8.77933 8.022 9.162C7.72333 9.54467 7.322 9.81067 6.818 9.96ZM3.262 9.148H4.83C5.222 9.148 5.52067 9.064 5.726 8.896C5.94067 8.71867 6.048 8.462 6.048 8.126C6.048 7.79 5.94067 7.53333 5.726 7.356C5.52067 7.17867 5.222 7.09 4.83 7.09H3.262V9.148ZM5.026 13.068C5.42733 13.068 5.73533 12.9793 5.95 12.802C6.174 12.6153 6.286 12.3493 6.286 12.004C6.286 11.6587 6.16933 11.388 5.936 11.192C5.712 10.996 5.39933 10.898 4.998 10.898H3.262V13.068H5.026ZM17.4605 10.968C17.4605 11.192 17.4465 11.4253 17.4185 11.668H12.0005C12.0378 12.1533 12.1918 12.5267 12.4625 12.788C12.7425 13.04 13.0832 13.166 13.4845 13.166C14.0818 13.166 14.4972 12.914 14.7305 12.41H17.2785C17.1478 12.9233 16.9098 13.3853 16.5645 13.796C16.2285 14.2067 15.8038 14.5287 15.2905 14.762C14.7772 14.9953 14.2032 15.112 13.5685 15.112C12.8032 15.112 12.1218 14.9487 11.5245 14.622C10.9272 14.2953 10.4605 13.8287 10.1245 13.222C9.78852 12.6153 9.62052 11.906 9.62052 11.094C9.62052 10.282 9.78385 9.57267 10.1105 8.966C10.4465 8.35933 10.9132 7.89267 11.5105 7.566C12.1078 7.23933 12.7938 7.076 13.5685 7.076C14.3245 7.076 14.9965 7.23467 15.5845 7.552C16.1725 7.86933 16.6298 8.322 16.9565 8.91C17.2925 9.498 17.4605 10.184 17.4605 10.968ZM15.0105 10.338C15.0105 9.92733 14.8705 9.60067 14.5905 9.358C14.3105 9.11533 13.9605 8.994 13.5405 8.994C13.1392 8.994 12.7985 9.11067 12.5185 9.344C12.2478 9.57733 12.0798 9.90867 12.0145 10.338H15.0105ZM21.9015 15.112C21.2201 15.112 20.6135 14.9953 20.0815 14.762C19.5495 14.5287 19.1295 14.2113 18.8215 13.81C18.5135 13.3993 18.3408 12.942 18.3035 12.438H20.6695C20.6975 12.7087 20.8235 12.928 21.0475 13.096C21.2715 13.264 21.5468 13.348 21.8735 13.348C22.1721 13.348 22.4008 13.292 22.5595 13.18C22.7275 13.0587 22.8115 12.9047 22.8115 12.718C22.8115 12.494 22.6948 12.3307 22.4615 12.228C22.2281 12.116 21.8501 11.9947 21.3275 11.864C20.7675 11.7333 20.3008 11.598 19.9275 11.458C19.5541 11.3087 19.2321 11.08 18.9615 10.772C18.6908 10.4547 18.5555 10.03 18.5555 9.498C18.5555 9.05 18.6768 8.644 18.9195 8.28C19.1715 7.90667 19.5355 7.61267 20.0115 7.398C20.4968 7.18333 21.0708 7.076 21.7335 7.076C22.7135 7.076 23.4835 7.31867 24.0435 7.804C24.6128 8.28933 24.9395 8.93333 25.0235 9.736H22.8115C22.7741 9.46533 22.6528 9.25067 22.4475 9.092C22.2515 8.93333 21.9901 8.854 21.6635 8.854C21.3835 8.854 21.1688 8.91 21.0195 9.022C20.8701 9.12467 20.7955 9.26933 20.7955 9.456C20.7955 9.68 20.9121 9.848 21.1455 9.96C21.3881 10.072 21.7615 10.184 22.2655 10.296C22.8441 10.4453 23.3155 10.5947 23.6795 10.744C24.0435 10.884 24.3608 11.1173 24.6315 11.444C24.9115 11.7613 25.0561 12.1907 25.0655 12.732C25.0655 13.1893 24.9348 13.6 24.6735 13.964C24.4215 14.3187 24.0528 14.5987 23.5675 14.804C23.0915 15.0093 22.5361 15.112 21.9015 15.112ZM30.8841 12.97V15H29.6661C28.7981 15 28.1214 14.79 27.6361 14.37C27.1508 13.9407 26.9081 13.2453 26.9081 12.284V9.176H25.9561V7.188H26.9081V5.284H29.3021V7.188H30.8701V9.176H29.3021V12.312C29.3021 12.5453 29.3581 12.7133 29.4701 12.816C29.5821 12.9187 29.7688 12.97 30.0301 12.97H30.8841ZM39.1044 9.176H37.8164V15H35.4224V9.176H34.5544V7.188H35.4224V6.964C35.4224 6.00267 35.6977 5.27467 36.2484 4.78C36.7991 4.276 37.6064 4.024 38.6704 4.024C38.8477 4.024 38.9784 4.02867 39.0624 4.038V6.068C38.6051 6.04 38.2831 6.10533 38.0964 6.264C37.9097 6.42267 37.8164 6.70733 37.8164 7.118V7.188H39.1044V9.176ZM43.7853 15.112C43.02 15.112 42.3293 14.9487 41.7133 14.622C41.1067 14.2953 40.626 13.8287 40.2713 13.222C39.926 12.6153 39.7533 11.906 39.7533 11.094C39.7533 10.2913 39.9307 9.58667 40.2853 8.98C40.64 8.364 41.1253 7.89267 41.7413 7.566C42.3573 7.23933 43.048 7.076 43.8133 7.076C44.5787 7.076 45.2693 7.23933 45.8853 7.566C46.5013 7.89267 46.9867 8.364 47.3413 8.98C47.696 9.58667 47.8733 10.2913 47.8733 11.094C47.8733 11.8967 47.6913 12.606 47.3273 13.222C46.9727 13.8287 46.4827 14.2953 45.8573 14.622C45.2413 14.9487 44.5507 15.112 43.7853 15.112ZM43.7853 13.04C44.2427 13.04 44.63 12.872 44.9473 12.536C45.274 12.2 45.4373 11.7193 45.4373 11.094C45.4373 10.4687 45.2787 9.988 44.9613 9.652C44.6533 9.316 44.2707 9.148 43.8133 9.148C43.3467 9.148 42.9593 9.316 42.6513 9.652C42.3433 9.97867 42.1893 10.4593 42.1893 11.094C42.1893 11.7193 42.3387 12.2 42.6373 12.536C42.9453 12.872 43.328 13.04 43.7853 13.04ZM51.5374 8.49C51.8174 8.06067 52.1674 7.72467 52.5874 7.482C53.0074 7.23 53.4741 7.104 53.9874 7.104V9.638H53.3294C52.7321 9.638 52.2841 9.76867 51.9854 10.03C51.6867 10.282 51.5374 10.73 51.5374 11.374V15H49.1434V7.188H51.5374V8.49ZM62.9005 7.104C63.7965 7.104 64.5151 7.40267 65.0565 8C65.5978 8.588 65.8685 9.4 65.8685 10.436V15H63.4885V10.758C63.4885 10.2353 63.3531 9.82933 63.0825 9.54C62.8118 9.25067 62.4478 9.106 61.9905 9.106C61.5331 9.106 61.1691 9.25067 60.8985 9.54C60.6278 9.82933 60.4925 10.2353 60.4925 10.758V15H58.0985V4.64H60.4925V8.238C60.7351 7.89267 61.0665 7.61733 61.4865 7.412C61.9065 7.20667 62.3778 7.104 62.9005 7.104ZM74.8961 10.968C74.8961 11.192 74.8821 11.4253 74.8541 11.668H69.4361C69.4734 12.1533 69.6274 12.5267 69.8981 12.788C70.1781 13.04 70.5187 13.166 70.9201 13.166C71.5174 13.166 71.9327 12.914 72.1661 12.41H74.7141C74.5834 12.9233 74.3454 13.3853 74.0001 13.796C73.6641 14.2067 73.2394 14.5287 72.7261 14.762C72.2127 14.9953 71.6387 15.112 71.0041 15.112C70.2387 15.112 69.5574 14.9487 68.9601 14.622C68.3627 14.2953 67.8961 13.8287 67.5601 13.222C67.2241 12.6153 67.0561 11.906 67.0561 11.094C67.0561 10.282 67.2194 9.57267 67.5461 8.966C67.8821 8.35933 68.3487 7.89267 68.9461 7.566C69.5434 7.23933 70.2294 7.076 71.0041 7.076C71.7601 7.076 72.4321 7.23467 73.0201 7.552C73.6081 7.86933 74.0654 8.322 74.3921 8.91C74.7281 9.498 74.8961 10.184 74.8961 10.968ZM72.4461 10.338C72.4461 9.92733 72.3061 9.60067 72.0261 9.358C71.7461 9.11533 71.3961 8.994 70.9761 8.994C70.5747 8.994 70.2341 9.11067 69.9541 9.344C69.6834 9.57733 69.5154 9.90867 69.4501 10.338H72.4461ZM75.683 11.08C75.683 10.2773 75.8323 9.57267 76.131 8.966C76.439 8.35933 76.8543 7.89267 77.377 7.566C77.8997 7.23933 78.483 7.076 79.127 7.076C79.6777 7.076 80.1583 7.188 80.569 7.412C80.989 7.636 81.311 7.93 81.535 8.294V7.188H83.929V15H81.535V13.894C81.3017 14.258 80.975 14.552 80.555 14.776C80.1443 15 79.6637 15.112 79.113 15.112C78.4783 15.112 77.8997 14.9487 77.377 14.622C76.8543 14.286 76.439 13.8147 76.131 13.208C75.8323 12.592 75.683 11.8827 75.683 11.08ZM81.535 11.094C81.535 10.4967 81.367 10.0253 81.031 9.68C80.7043 9.33467 80.303 9.162 79.827 9.162C79.351 9.162 78.945 9.33467 78.609 9.68C78.2823 10.016 78.119 10.4827 78.119 11.08C78.119 11.6773 78.2823 12.1533 78.609 12.508C78.945 12.8533 79.351 13.026 79.827 13.026C80.303 13.026 80.7043 12.8533 81.031 12.508C81.367 12.1627 81.535 11.6913 81.535 11.094ZM89.175 12.76L90.869 7.188H93.417L90.645 15H87.691L84.919 7.188H87.481L89.175 12.76ZM102.405 7.188L97.5046 18.71H94.9286L96.7206 14.734L93.5426 7.188H96.2166L98.0226 12.074L99.8146 7.188H102.405ZM0.392 32.08C0.392 31.2773 0.541333 30.5727 0.84 29.966C1.148 29.3593 1.56333 28.8927 2.086 28.566C2.60867 28.2393 3.192 28.076 3.836 28.076C4.38667 28.076 4.86733 28.188 5.278 28.412C5.698 28.636 6.02 28.93 6.244 29.294V28.188H8.638V36H6.244V34.894C6.01067 35.258 5.684 35.552 5.264 35.776C4.85333 36 4.37267 36.112 3.822 36.112C3.18733 36.112 2.60867 35.9487 2.086 35.622C1.56333 35.286 1.148 34.8147 0.84 34.208C0.541333 33.592 0.392 32.8827 0.392 32.08ZM6.244 32.094C6.244 31.4967 6.076 31.0253 5.74 30.68C5.41333 30.3347 5.012 30.162 4.536 30.162C4.06 30.162 3.654 30.3347 3.318 30.68C2.99133 31.016 2.828 31.4827 2.828 32.08C2.828 32.6773 2.99133 33.1533 3.318 33.508C3.654 33.8533 4.06 34.026 4.536 34.026C5.012 34.026 5.41333 33.8533 5.74 33.508C6.076 33.1627 6.244 32.6913 6.244 32.094ZM12.764 29.294C12.9973 28.93 13.3193 28.636 13.73 28.412C14.1406 28.188 14.6213 28.076 15.172 28.076C15.816 28.076 16.3993 28.2393 16.922 28.566C17.4446 28.8927 17.8553 29.3593 18.154 29.966C18.462 30.5727 18.616 31.2773 18.616 32.08C18.616 32.8827 18.462 33.592 18.154 34.208C17.8553 34.8147 17.4446 35.286 16.922 35.622C16.3993 35.9487 15.816 36.112 15.172 36.112C14.6306 36.112 14.15 36 13.73 35.776C13.3193 35.552 12.9973 35.2627 12.764 34.908V39.724H10.37V28.188H12.764V29.294ZM16.18 32.08C16.18 31.4827 16.012 31.016 15.676 30.68C15.3493 30.3347 14.9433 30.162 14.458 30.162C13.982 30.162 13.576 30.3347 13.24 30.68C12.9133 31.0253 12.75 31.4967 12.75 32.094C12.75 32.6913 12.9133 33.1627 13.24 33.508C13.576 33.8533 13.982 34.026 14.458 34.026C14.934 34.026 15.34 33.8533 15.676 33.508C16.012 33.1533 16.18 32.6773 16.18 32.08ZM22.2659 29.294C22.4992 28.93 22.8212 28.636 23.2319 28.412C23.6426 28.188 24.1232 28.076 24.6739 28.076C25.3179 28.076 25.9012 28.2393 26.4239 28.566C26.9466 28.8927 27.3572 29.3593 27.6559 29.966C27.9639 30.5727 28.1179 31.2773 28.1179 32.08C28.1179 32.8827 27.9639 33.592 27.6559 34.208C27.3572 34.8147 26.9466 35.286 26.4239 35.622C25.9012 35.9487 25.3179 36.112 24.6739 36.112C24.1326 36.112 23.6519 36 23.2319 35.776C22.8212 35.552 22.4992 35.2627 22.2659 34.908V39.724H19.8719V28.188H22.2659V29.294ZM25.6819 32.08C25.6819 31.4827 25.5139 31.016 25.1779 30.68C24.8512 30.3347 24.4452 30.162 23.9599 30.162C23.4839 30.162 23.0779 30.3347 22.7419 30.68C22.4152 31.0253 22.2519 31.4967 22.2519 32.094C22.2519 32.6913 22.4152 33.1627 22.7419 33.508C23.0779 33.8533 23.4839 34.026 23.9599 34.026C24.4359 34.026 24.8419 33.8533 25.1779 33.508C25.5139 33.1533 25.6819 32.6773 25.6819 32.08ZM31.7679 25.64V36H29.3739V25.64H31.7679ZM34.7068 27.376C34.2868 27.376 33.9414 27.2547 33.6708 27.012C33.4094 26.76 33.2788 26.452 33.2788 26.088C33.2788 25.7147 33.4094 25.4067 33.6708 25.164C33.9414 24.912 34.2868 24.786 34.7068 24.786C35.1174 24.786 35.4534 24.912 35.7148 25.164C35.9854 25.4067 36.1208 25.7147 36.1208 26.088C36.1208 26.452 35.9854 26.76 35.7148 27.012C35.4534 27.2547 35.1174 27.376 34.7068 27.376ZM35.8968 28.188V36H33.5028V28.188H35.8968ZM37.1557 32.094C37.1557 31.282 37.319 30.5727 37.6457 29.966C37.9817 29.3593 38.4437 28.8927 39.0317 28.566C39.629 28.2393 40.3103 28.076 41.0757 28.076C42.0557 28.076 42.8723 28.3327 43.5257 28.846C44.1883 29.3593 44.6223 30.0827 44.8277 31.016H42.2797C42.065 30.4187 41.6497 30.12 41.0337 30.12C40.595 30.12 40.245 30.2927 39.9837 30.638C39.7223 30.974 39.5917 31.4593 39.5917 32.094C39.5917 32.7287 39.7223 33.2187 39.9837 33.564C40.245 33.9 40.595 34.068 41.0337 34.068C41.6497 34.068 42.065 33.7693 42.2797 33.172H44.8277C44.6223 34.0867 44.1883 34.8053 43.5257 35.328C42.863 35.8507 42.0463 36.112 41.0757 36.112C40.3103 36.112 39.629 35.9487 39.0317 35.622C38.4437 35.2953 37.9817 34.8287 37.6457 34.222C37.319 33.6153 37.1557 32.906 37.1557 32.094ZM45.6322 32.08C45.6322 31.2773 45.7816 30.5727 46.0802 29.966C46.3882 29.3593 46.8036 28.8927 47.3262 28.566C47.8489 28.2393 48.4322 28.076 49.0762 28.076C49.6269 28.076 50.1076 28.188 50.5182 28.412C50.9382 28.636 51.2602 28.93 51.4842 29.294V28.188H53.8782V36H51.4842V34.894C51.2509 35.258 50.9242 35.552 50.5042 35.776C50.0936 36 49.6129 36.112 49.0622 36.112C48.4276 36.112 47.8489 35.9487 47.3262 35.622C46.8036 35.286 46.3882 34.8147 46.0802 34.208C45.7816 33.592 45.6322 32.8827 45.6322 32.08ZM51.4842 32.094C51.4842 31.4967 51.3162 31.0253 50.9802 30.68C50.6536 30.3347 50.2522 30.162 49.7762 30.162C49.3002 30.162 48.8942 30.3347 48.5582 30.68C48.2316 31.016 48.0682 31.4827 48.0682 32.08C48.0682 32.6773 48.2316 33.1533 48.5582 33.508C48.8942 33.8533 49.3002 34.026 49.7762 34.026C50.2522 34.026 50.6536 33.8533 50.9802 33.508C51.3162 33.1627 51.4842 32.6913 51.4842 32.094ZM59.9642 33.97V36H58.7462C57.8782 36 57.2015 35.79 56.7162 35.37C56.2309 34.9407 55.9882 34.2453 55.9882 33.284V30.176H55.0362V28.188H55.9882V26.284H58.3822V28.188H59.9502V30.176H58.3822V33.312C58.3822 33.5453 58.4382 33.7133 58.5502 33.816C58.6622 33.9187 58.8489 33.97 59.1102 33.97H59.9642ZM62.5017 27.376C62.0817 27.376 61.7364 27.2547 61.4657 27.012C61.2044 26.76 61.0737 26.452 61.0737 26.088C61.0737 25.7147 61.2044 25.4067 61.4657 25.164C61.7364 24.912 62.0817 24.786 62.5017 24.786C62.9124 24.786 63.2484 24.912 63.5097 25.164C63.7804 25.4067 63.9157 25.7147 63.9157 26.088C63.9157 26.452 63.7804 26.76 63.5097 27.012C63.2484 27.2547 62.9124 27.376 62.5017 27.376ZM63.6917 28.188V36H61.2977V28.188H63.6917ZM68.9826 36.112C68.2173 36.112 67.5266 35.9487 66.9106 35.622C66.3039 35.2953 65.8233 34.8287 65.4686 34.222C65.1233 33.6153 64.9506 32.906 64.9506 32.094C64.9506 31.2913 65.1279 30.5867 65.4826 29.98C65.8373 29.364 66.3226 28.8927 66.9386 28.566C67.5546 28.2393 68.2453 28.076 69.0106 28.076C69.7759 28.076 70.4666 28.2393 71.0826 28.566C71.6986 28.8927 72.1839 29.364 72.5386 29.98C72.8933 30.5867 73.0706 31.2913 73.0706 32.094C73.0706 32.8967 72.8886 33.606 72.5246 34.222C72.1699 34.8287 71.6799 35.2953 71.0546 35.622C70.4386 35.9487 69.7479 36.112 68.9826 36.112ZM68.9826 34.04C69.4399 34.04 69.8273 33.872 70.1446 33.536C70.4713 33.2 70.6346 32.7193 70.6346 32.094C70.6346 31.4687 70.4759 30.988 70.1586 30.652C69.8506 30.316 69.4679 30.148 69.0106 30.148C68.5439 30.148 68.1566 30.316 67.8486 30.652C67.5406 30.9787 67.3866 31.4593 67.3866 32.094C67.3866 32.7193 67.5359 33.2 67.8346 33.536C68.1426 33.872 68.5253 34.04 68.9826 34.04ZM79.1007 28.104C80.0153 28.104 80.7433 28.4027 81.2847 29C81.8353 29.588 82.1107 30.4 82.1107 31.436V36H79.7307V31.758C79.7307 31.2353 79.5953 30.8293 79.3247 30.54C79.054 30.2507 78.69 30.106 78.2327 30.106C77.7753 30.106 77.4113 30.2507 77.1407 30.54C76.87 30.8293 76.7347 31.2353 76.7347 31.758V36H74.3407V28.188H76.7347V29.224C76.9773 28.8787 77.304 28.608 77.7147 28.412C78.1253 28.2067 78.5873 28.104 79.1007 28.104ZM86.9523 36.112C86.2709 36.112 85.6643 35.9953 85.1323 35.762C84.6003 35.5287 84.1803 35.2113 83.8723 34.81C83.5643 34.3993 83.3916 33.942 83.3543 33.438H85.7203C85.7483 33.7087 85.8743 33.928 86.0983 34.096C86.3223 34.264 86.5976 34.348 86.9243 34.348C87.2229 34.348 87.4516 34.292 87.6103 34.18C87.7783 34.0587 87.8623 33.9047 87.8623 33.718C87.8623 33.494 87.7456 33.3307 87.5123 33.228C87.2789 33.116 86.9009 32.9947 86.3783 32.864C85.8183 32.7333 85.3516 32.598 84.9783 32.458C84.6049 32.3087 84.2829 32.08 84.0123 31.772C83.7416 31.4547 83.6063 31.03 83.6063 30.498C83.6063 30.05 83.7276 29.644 83.9703 29.28C84.2223 28.9067 84.5863 28.6127 85.0623 28.398C85.5476 28.1833 86.1216 28.076 86.7843 28.076C87.7643 28.076 88.5343 28.3187 89.0943 28.804C89.6636 29.2893 89.9903 29.9333 90.0743 30.736H87.8623C87.8249 30.4653 87.7036 30.2507 87.4983 30.092C87.3023 29.9333 87.0409 29.854 86.7143 29.854C86.4343 29.854 86.2196 29.91 86.0703 30.022C85.9209 30.1247 85.8463 30.2693 85.8463 30.456C85.8463 30.68 85.9629 30.848 86.1963 30.96C86.4389 31.072 86.8123 31.184 87.3163 31.296C87.8949 31.4453 88.3663 31.5947 88.7303 31.744C89.0943 31.884 89.4116 32.1173 89.6823 32.444C89.9623 32.7613 90.1069 33.1907 90.1163 33.732C90.1163 34.1893 89.9856 34.6 89.7243 34.964C89.4723 35.3187 89.1036 35.5987 88.6183 35.804C88.1423 36.0093 87.5869 36.112 86.9523 36.112Z" fill="white"/>
</svg>
