<svg width="164" height="103" viewBox="0 0 164 103" fill="none" xmlns="http://www.w3.org/2000/svg">
<path d="M7.392 71.28C7.21467 70.9533 6.958 70.706 6.622 70.538C6.29533 70.3607 5.908 70.272 5.46 70.272C4.68533 70.272 4.06467 70.5287 3.598 71.042C3.13133 71.546 2.898 72.2227 2.898 73.072C2.898 73.9773 3.14067 74.6867 3.626 75.2C4.12067 75.704 4.79733 75.956 5.656 75.956C6.244 75.956 6.73867 75.8067 7.14 75.508C7.55067 75.2093 7.84933 74.78 8.036 74.22H4.998V72.456H10.206V74.682C10.0287 75.2793 9.72533 75.8347 9.296 76.348C8.876 76.8613 8.33933 77.2767 7.686 77.594C7.03267 77.9113 6.29533 78.07 5.474 78.07C4.50333 78.07 3.63533 77.86 2.87 77.44C2.114 77.0107 1.52133 76.418 1.092 75.662C0.672 74.906 0.462 74.0427 0.462 73.072C0.462 72.1013 0.672 71.238 1.092 70.482C1.52133 69.7167 2.114 69.124 2.87 68.704C3.626 68.2747 4.48933 68.06 5.46 68.06C6.636 68.06 7.62533 68.3447 8.428 68.914C9.24 69.4833 9.77667 70.272 10.038 71.28H7.392ZM15.0881 78.112C14.3227 78.112 13.6321 77.9487 13.0161 77.622C12.4094 77.2953 11.9287 76.8287 11.5741 76.222C11.2287 75.6153 11.0561 74.906 11.0561 74.094C11.0561 73.2913 11.2334 72.5867 11.5881 71.98C11.9427 71.364 12.4281 70.8927 13.0441 70.566C13.6601 70.2393 14.3507 70.076 15.1161 70.076C15.8814 70.076 16.5721 70.2393 17.1881 70.566C17.8041 70.8927 18.2894 71.364 18.6441 71.98C18.9987 72.5867 19.1761 73.2913 19.1761 74.094C19.1761 74.8967 18.9941 75.606 18.6301 76.222C18.2754 76.8287 17.7854 77.2953 17.1601 77.622C16.5441 77.9487 15.8534 78.112 15.0881 78.112ZM15.0881 76.04C15.5454 76.04 15.9327 75.872 16.2501 75.536C16.5767 75.2 16.7401 74.7193 16.7401 74.094C16.7401 73.4687 16.5814 72.988 16.2641 72.652C15.9561 72.316 15.5734 72.148 15.1161 72.148C14.6494 72.148 14.2621 72.316 13.9541 72.652C13.6461 72.9787 13.4921 73.4593 13.4921 74.094C13.4921 74.7193 13.6414 75.2 13.9401 75.536C14.2481 75.872 14.6307 76.04 15.0881 76.04ZM24.0021 78.112C23.2368 78.112 22.5461 77.9487 21.9301 77.622C21.3235 77.2953 20.8428 76.8287 20.4881 76.222C20.1428 75.6153 19.9701 74.906 19.9701 74.094C19.9701 73.2913 20.1475 72.5867 20.5021 71.98C20.8568 71.364 21.3421 70.8927 21.9581 70.566C22.5741 70.2393 23.2648 70.076 24.0301 70.076C24.7955 70.076 25.4861 70.2393 26.1021 70.566C26.7181 70.8927 27.2035 71.364 27.5581 71.98C27.9128 72.5867 28.0901 73.2913 28.0901 74.094C28.0901 74.8967 27.9081 75.606 27.5441 76.222C27.1895 76.8287 26.6995 77.2953 26.0741 77.622C25.4581 77.9487 24.7675 78.112 24.0021 78.112ZM24.0021 76.04C24.4595 76.04 24.8468 75.872 25.1641 75.536C25.4908 75.2 25.6541 74.7193 25.6541 74.094C25.6541 73.4687 25.4955 72.988 25.1781 72.652C24.8701 72.316 24.4875 72.148 24.0301 72.148C23.5635 72.148 23.1761 72.316 22.8681 72.652C22.5601 72.9787 22.4061 73.4593 22.4061 74.094C22.4061 74.7193 22.5555 75.2 22.8541 75.536C23.1621 75.872 23.5448 76.04 24.0021 76.04ZM28.8842 74.08C28.8842 73.2773 29.0335 72.5727 29.3322 71.966C29.6402 71.3593 30.0555 70.8927 30.5782 70.566C31.1009 70.2393 31.6842 70.076 32.3282 70.076C32.8415 70.076 33.3082 70.1833 33.7282 70.398C34.1575 70.6127 34.4935 70.902 34.7362 71.266V67.64H37.1302V78H34.7362V76.88C34.5122 77.2533 34.1902 77.552 33.7702 77.776C33.3595 78 32.8789 78.112 32.3282 78.112C31.6842 78.112 31.1009 77.9487 30.5782 77.622C30.0555 77.286 29.6402 76.8147 29.3322 76.208C29.0335 75.592 28.8842 74.8827 28.8842 74.08ZM34.7362 74.094C34.7362 73.4967 34.5682 73.0253 34.2322 72.68C33.9055 72.3347 33.5042 72.162 33.0282 72.162C32.5522 72.162 32.1462 72.3347 31.8102 72.68C31.4835 73.016 31.3202 73.4827 31.3202 74.08C31.3202 74.6773 31.4835 75.1533 31.8102 75.508C32.1462 75.8533 32.5522 76.026 33.0282 76.026C33.5042 76.026 33.9055 75.8533 34.2322 75.508C34.5682 75.1627 34.7362 74.6913 34.7362 74.094ZM45.7489 72.176H44.4609V78H42.0669V72.176H41.1989V70.188H42.0669V69.964C42.0669 69.0027 42.3423 68.2747 42.8929 67.78C43.4436 67.276 44.2509 67.024 45.3149 67.024C45.4923 67.024 45.6229 67.0287 45.7069 67.038V69.068C45.2496 69.04 44.9276 69.1053 44.7409 69.264C44.5543 69.4227 44.4609 69.7073 44.4609 70.118V70.188H45.7489V72.176ZM50.4299 78.112C49.6645 78.112 48.9739 77.9487 48.3579 77.622C47.7512 77.2953 47.2705 76.8287 46.9159 76.222C46.5705 75.6153 46.3979 74.906 46.3979 74.094C46.3979 73.2913 46.5752 72.5867 46.9299 71.98C47.2845 71.364 47.7699 70.8927 48.3859 70.566C49.0019 70.2393 49.6925 70.076 50.4579 70.076C51.2232 70.076 51.9139 70.2393 52.5299 70.566C53.1459 70.8927 53.6312 71.364 53.9859 71.98C54.3405 72.5867 54.5179 73.2913 54.5179 74.094C54.5179 74.8967 54.3359 75.606 53.9719 76.222C53.6172 76.8287 53.1272 77.2953 52.5019 77.622C51.8859 77.9487 51.1952 78.112 50.4299 78.112ZM50.4299 76.04C50.8872 76.04 51.2745 75.872 51.5919 75.536C51.9185 75.2 52.0819 74.7193 52.0819 74.094C52.0819 73.4687 51.9232 72.988 51.6059 72.652C51.2979 72.316 50.9152 72.148 50.4579 72.148C49.9912 72.148 49.6039 72.316 49.2959 72.652C48.9879 72.9787 48.8339 73.4593 48.8339 74.094C48.8339 74.7193 48.9832 75.2 49.2819 75.536C49.5899 75.872 49.9725 76.04 50.4299 76.04ZM58.1819 71.49C58.4619 71.0607 58.8119 70.7247 59.2319 70.482C59.6519 70.23 60.1186 70.104 60.6319 70.104V72.638H59.9739C59.3766 72.638 58.9286 72.7687 58.6299 73.03C58.3313 73.282 58.1819 73.73 58.1819 74.374V78H55.7879V70.188H58.1819V71.49ZM69.545 70.104C70.441 70.104 71.1597 70.4027 71.701 71C72.2423 71.588 72.513 72.4 72.513 73.436V78H70.133V73.758C70.133 73.2353 69.9977 72.8293 69.727 72.54C69.4563 72.2507 69.0923 72.106 68.635 72.106C68.1777 72.106 67.8137 72.2507 67.543 72.54C67.2723 72.8293 67.137 73.2353 67.137 73.758V78H64.743V67.64H67.137V71.238C67.3797 70.8927 67.711 70.6173 68.131 70.412C68.551 70.2067 69.0223 70.104 69.545 70.104ZM75.3806 69.376C74.9606 69.376 74.6153 69.2547 74.3446 69.012C74.0833 68.76 73.9526 68.452 73.9526 68.088C73.9526 67.7147 74.0833 67.4067 74.3446 67.164C74.6153 66.912 74.9606 66.786 75.3806 66.786C75.7913 66.786 76.1273 66.912 76.3886 67.164C76.6593 67.4067 76.7946 67.7147 76.7946 68.088C76.7946 68.452 76.6593 68.76 76.3886 69.012C76.1273 69.2547 75.7913 69.376 75.3806 69.376ZM76.5706 70.188V78H74.1766V70.188H76.5706ZM81.2735 70.076C81.8242 70.076 82.3048 70.188 82.7155 70.412C83.1355 70.636 83.4575 70.93 83.6815 71.294V70.188H86.0755V77.986C86.0755 78.7047 85.9308 79.3533 85.6415 79.932C85.3615 80.52 84.9275 80.9867 84.3395 81.332C83.7608 81.6773 83.0375 81.85 82.1695 81.85C81.0122 81.85 80.0742 81.5747 79.3555 81.024C78.6368 80.4827 78.2262 79.7453 78.1235 78.812H80.4895C80.5642 79.1107 80.7415 79.344 81.0215 79.512C81.3015 79.6893 81.6468 79.778 82.0575 79.778C82.5522 79.778 82.9442 79.6333 83.2335 79.344C83.5322 79.064 83.6815 78.6113 83.6815 77.986V76.88C83.4482 77.244 83.1262 77.5427 82.7155 77.776C82.3048 78 81.8242 78.112 81.2735 78.112C80.6295 78.112 80.0462 77.9487 79.5235 77.622C79.0008 77.286 78.5855 76.8147 78.2775 76.208C77.9788 75.592 77.8295 74.8827 77.8295 74.08C77.8295 73.2773 77.9788 72.5727 78.2775 71.966C78.5855 71.3593 79.0008 70.8927 79.5235 70.566C80.0462 70.2393 80.6295 70.076 81.2735 70.076ZM83.6815 74.094C83.6815 73.4967 83.5135 73.0253 83.1775 72.68C82.8508 72.3347 82.4495 72.162 81.9735 72.162C81.4975 72.162 81.0915 72.3347 80.7555 72.68C80.4288 73.016 80.2655 73.4827 80.2655 74.08C80.2655 74.6773 80.4288 75.1533 80.7555 75.508C81.0915 75.8533 81.4975 76.026 81.9735 76.026C82.4495 76.026 82.8508 75.8533 83.1775 75.508C83.5135 75.1627 83.6815 74.6913 83.6815 74.094ZM92.6095 70.104C93.5055 70.104 94.2241 70.4027 94.7655 71C95.3068 71.588 95.5775 72.4 95.5775 73.436V78H93.1975V73.758C93.1975 73.2353 93.0621 72.8293 92.7915 72.54C92.5208 72.2507 92.1568 72.106 91.6995 72.106C91.2421 72.106 90.8781 72.2507 90.6075 72.54C90.3368 72.8293 90.2015 73.2353 90.2015 73.758V78H87.8075V67.64H90.2015V71.238C90.4441 70.8927 90.7755 70.6173 91.1955 70.412C91.6155 70.2067 92.0868 70.104 92.6095 70.104ZM103.261 72.092V74.08H97.101V72.092H103.261ZM108.54 78.112C107.859 78.112 107.252 77.9953 106.72 77.762C106.188 77.5287 105.768 77.2113 105.46 76.81C105.152 76.3993 104.979 75.942 104.942 75.438H107.308C107.336 75.7087 107.462 75.928 107.686 76.096C107.91 76.264 108.185 76.348 108.512 76.348C108.811 76.348 109.039 76.292 109.198 76.18C109.366 76.0587 109.45 75.9047 109.45 75.718C109.45 75.494 109.333 75.3307 109.1 75.228C108.867 75.116 108.489 74.9947 107.966 74.864C107.406 74.7333 106.939 74.598 106.566 74.458C106.193 74.3087 105.871 74.08 105.6 73.772C105.329 73.4547 105.194 73.03 105.194 72.498C105.194 72.05 105.315 71.644 105.558 71.28C105.81 70.9067 106.174 70.6127 106.65 70.398C107.135 70.1833 107.709 70.076 108.372 70.076C109.352 70.076 110.122 70.3187 110.682 70.804C111.251 71.2893 111.578 71.9333 111.662 72.736H109.45C109.413 72.4653 109.291 72.2507 109.086 72.092C108.89 71.9333 108.629 71.854 108.302 71.854C108.022 71.854 107.807 71.91 107.658 72.022C107.509 72.1247 107.434 72.2693 107.434 72.456C107.434 72.68 107.551 72.848 107.784 72.96C108.027 73.072 108.4 73.184 108.904 73.296C109.483 73.4453 109.954 73.5947 110.318 73.744C110.682 73.884 110.999 74.1173 111.27 74.444C111.55 74.7613 111.695 75.1907 111.704 75.732C111.704 76.1893 111.573 76.6 111.312 76.964C111.06 77.3187 110.691 77.5987 110.206 77.804C109.73 78.0093 109.175 78.112 108.54 78.112ZM115.563 71.294C115.796 70.93 116.118 70.636 116.529 70.412C116.939 70.188 117.42 70.076 117.971 70.076C118.615 70.076 119.198 70.2393 119.721 70.566C120.243 70.8927 120.654 71.3593 120.953 71.966C121.261 72.5727 121.415 73.2773 121.415 74.08C121.415 74.8827 121.261 75.592 120.953 76.208C120.654 76.8147 120.243 77.286 119.721 77.622C119.198 77.9487 118.615 78.112 117.971 78.112C117.429 78.112 116.949 78 116.529 77.776C116.118 77.552 115.796 77.2627 115.563 76.908V81.724H113.169V70.188H115.563V71.294ZM118.979 74.08C118.979 73.4827 118.811 73.016 118.475 72.68C118.148 72.3347 117.742 72.162 117.257 72.162C116.781 72.162 116.375 72.3347 116.039 72.68C115.712 73.0253 115.549 73.4967 115.549 74.094C115.549 74.6913 115.712 75.1627 116.039 75.508C116.375 75.8533 116.781 76.026 117.257 76.026C117.733 76.026 118.139 75.8533 118.475 75.508C118.811 75.1533 118.979 74.6773 118.979 74.08ZM130.035 73.968C130.035 74.192 130.021 74.4253 129.993 74.668H124.575C124.612 75.1533 124.766 75.5267 125.037 75.788C125.317 76.04 125.657 76.166 126.059 76.166C126.656 76.166 127.071 75.914 127.305 75.41H129.853C129.722 75.9233 129.484 76.3853 129.139 76.796C128.803 77.2067 128.378 77.5287 127.865 77.762C127.351 77.9953 126.777 78.112 126.143 78.112C125.377 78.112 124.696 77.9487 124.099 77.622C123.501 77.2953 123.035 76.8287 122.699 76.222C122.363 75.6153 122.195 74.906 122.195 74.094C122.195 73.282 122.358 72.5727 122.685 71.966C123.021 71.3593 123.487 70.8927 124.085 70.566C124.682 70.2393 125.368 70.076 126.143 70.076C126.899 70.076 127.571 70.2347 128.159 70.552C128.747 70.8693 129.204 71.322 129.531 71.91C129.867 72.498 130.035 73.184 130.035 73.968ZM127.585 73.338C127.585 72.9273 127.445 72.6007 127.165 72.358C126.885 72.1153 126.535 71.994 126.115 71.994C125.713 71.994 125.373 72.1107 125.093 72.344C124.822 72.5773 124.654 72.9087 124.589 73.338H127.585ZM138.662 73.968C138.662 74.192 138.648 74.4253 138.62 74.668H133.202C133.239 75.1533 133.393 75.5267 133.664 75.788C133.944 76.04 134.284 76.166 134.686 76.166C135.283 76.166 135.698 75.914 135.932 75.41H138.48C138.349 75.9233 138.111 76.3853 137.766 76.796C137.43 77.2067 137.005 77.5287 136.492 77.762C135.978 77.9953 135.404 78.112 134.77 78.112C134.004 78.112 133.323 77.9487 132.726 77.622C132.128 77.2953 131.662 76.8287 131.326 76.222C130.99 75.6153 130.822 74.906 130.822 74.094C130.822 73.282 130.985 72.5727 131.312 71.966C131.648 71.3593 132.114 70.8927 132.712 70.566C133.309 70.2393 133.995 70.076 134.77 70.076C135.526 70.076 136.198 70.2347 136.786 70.552C137.374 70.8693 137.831 71.322 138.158 71.91C138.494 72.498 138.662 73.184 138.662 73.968ZM136.212 73.338C136.212 72.9273 136.072 72.6007 135.792 72.358C135.512 72.1153 135.162 71.994 134.742 71.994C134.34 71.994 134 72.1107 133.72 72.344C133.449 72.5773 133.281 72.9087 133.216 73.338H136.212ZM139.449 74.08C139.449 73.2773 139.598 72.5727 139.897 71.966C140.205 71.3593 140.62 70.8927 141.143 70.566C141.665 70.2393 142.249 70.076 142.893 70.076C143.406 70.076 143.873 70.1833 144.293 70.398C144.722 70.6127 145.058 70.902 145.301 71.266V67.64H147.695V78H145.301V76.88C145.077 77.2533 144.755 77.552 144.335 77.776C143.924 78 143.443 78.112 142.893 78.112C142.249 78.112 141.665 77.9487 141.143 77.622C140.62 77.286 140.205 76.8147 139.897 76.208C139.598 75.592 139.449 74.8827 139.449 74.08ZM145.301 74.094C145.301 73.4967 145.133 73.0253 144.797 72.68C144.47 72.3347 144.069 72.162 143.593 72.162C143.117 72.162 142.711 72.3347 142.375 72.68C142.048 73.016 141.885 73.4827 141.885 74.08C141.885 74.6773 142.048 75.1533 142.375 75.508C142.711 75.8533 143.117 76.026 143.593 76.026C144.069 76.026 144.47 75.8533 144.797 75.508C145.133 75.1627 145.301 74.6913 145.301 74.094ZM4.424 99.112C3.65867 99.112 2.968 98.9487 2.352 98.622C1.74533 98.2953 1.26467 97.8287 0.91 97.222C0.564667 96.6153 0.392 95.906 0.392 95.094C0.392 94.2913 0.569333 93.5867 0.924 92.98C1.27867 92.364 1.764 91.8927 2.38 91.566C2.996 91.2393 3.68667 91.076 4.452 91.076C5.21733 91.076 5.908 91.2393 6.524 91.566C7.14 91.8927 7.62533 92.364 7.98 92.98C8.33467 93.5867 8.512 94.2913 8.512 95.094C8.512 95.8967 8.33 96.606 7.966 97.222C7.61133 97.8287 7.12133 98.2953 6.496 98.622C5.88 98.9487 5.18933 99.112 4.424 99.112ZM4.424 97.04C4.88133 97.04 5.26867 96.872 5.586 96.536C5.91267 96.2 6.076 95.7193 6.076 95.094C6.076 94.4687 5.91733 93.988 5.6 93.652C5.292 93.316 4.90933 93.148 4.452 93.148C3.98533 93.148 3.598 93.316 3.29 93.652C2.982 93.9787 2.828 94.4593 2.828 95.094C2.828 95.7193 2.97733 96.2 3.276 96.536C3.584 96.872 3.96667 97.04 4.424 97.04ZM12.1761 92.294C12.4094 91.93 12.7314 91.636 13.1421 91.412C13.5527 91.188 14.0334 91.076 14.5841 91.076C15.2281 91.076 15.8114 91.2393 16.3341 91.566C16.8567 91.8927 17.2674 92.3593 17.5661 92.966C17.8741 93.5727 18.0281 94.2773 18.0281 95.08C18.0281 95.8827 17.8741 96.592 17.5661 97.208C17.2674 97.8147 16.8567 98.286 16.3341 98.622C15.8114 98.9487 15.2281 99.112 14.5841 99.112C14.0427 99.112 13.5621 99 13.1421 98.776C12.7314 98.552 12.4094 98.2627 12.1761 97.908V102.724H9.78206V91.188H12.1761V92.294ZM15.5921 95.08C15.5921 94.4827 15.4241 94.016 15.0881 93.68C14.7614 93.3347 14.3554 93.162 13.8701 93.162C13.3941 93.162 12.9881 93.3347 12.6521 93.68C12.3254 94.0253 12.1621 94.4967 12.1621 95.094C12.1621 95.6913 12.3254 96.1627 12.6521 96.508C12.9881 96.8533 13.3941 97.026 13.8701 97.026C14.3461 97.026 14.7521 96.8533 15.0881 96.508C15.4241 96.1533 15.5921 95.6773 15.5921 95.08ZM26.648 94.968C26.648 95.192 26.634 95.4253 26.606 95.668H21.188C21.2253 96.1533 21.3793 96.5267 21.65 96.788C21.93 97.04 22.2707 97.166 22.672 97.166C23.2693 97.166 23.6847 96.914 23.918 96.41H26.466C26.3353 96.9233 26.0973 97.3853 25.752 97.796C25.416 98.2067 24.9913 98.5287 24.478 98.762C23.9647 98.9953 23.3907 99.112 22.756 99.112C21.9907 99.112 21.3093 98.9487 20.712 98.622C20.1147 98.2953 19.648 97.8287 19.312 97.222C18.976 96.6153 18.808 95.906 18.808 95.094C18.808 94.282 18.9713 93.5727 19.298 92.966C19.634 92.3593 20.1007 91.8927 20.698 91.566C21.2953 91.2393 21.9813 91.076 22.756 91.076C23.512 91.076 24.184 91.2347 24.772 91.552C25.36 91.8693 25.8173 92.322 26.144 92.91C26.48 93.498 26.648 94.184 26.648 94.968ZM24.198 94.338C24.198 93.9273 24.058 93.6007 23.778 93.358C23.498 93.1153 23.148 92.994 22.728 92.994C22.3267 92.994 21.986 93.1107 21.706 93.344C21.4353 93.5773 21.2673 93.9087 21.202 94.338H24.198ZM30.305 92.49C30.585 92.0607 30.935 91.7247 31.355 91.482C31.775 91.23 32.2416 91.104 32.755 91.104V93.638H32.097C31.4996 93.638 31.0516 93.7687 30.753 94.03C30.4543 94.282 30.305 94.73 30.305 95.374V99H27.911V91.188H30.305V92.49ZM33.4233 95.08C33.4233 94.2773 33.5726 93.5727 33.8713 92.966C34.1793 92.3593 34.5946 91.8927 35.1173 91.566C35.6399 91.2393 36.2233 91.076 36.8673 91.076C37.4179 91.076 37.8986 91.188 38.3093 91.412C38.7293 91.636 39.0513 91.93 39.2753 92.294V91.188H41.6693V99H39.2753V97.894C39.0419 98.258 38.7153 98.552 38.2953 98.776C37.8846 99 37.4039 99.112 36.8533 99.112C36.2186 99.112 35.6399 98.9487 35.1173 98.622C34.5946 98.286 34.1793 97.8147 33.8713 97.208C33.5726 96.592 33.4233 95.8827 33.4233 95.08ZM39.2753 95.094C39.2753 94.4967 39.1073 94.0253 38.7713 93.68C38.4446 93.3347 38.0433 93.162 37.5673 93.162C37.0913 93.162 36.6853 93.3347 36.3493 93.68C36.0226 94.016 35.8593 94.4827 35.8593 95.08C35.8593 95.6773 36.0226 96.1533 36.3493 96.508C36.6853 96.8533 37.0913 97.026 37.5673 97.026C38.0433 97.026 38.4446 96.8533 38.7713 96.508C39.1073 96.1627 39.2753 95.6913 39.2753 95.094ZM47.7552 96.97V99H46.5372C45.6692 99 44.9925 98.79 44.5072 98.37C44.0219 97.9407 43.7792 97.2453 43.7792 96.284V93.176H42.8272V91.188H43.7792V89.284H46.1732V91.188H47.7412V93.176H46.1732V96.312C46.1732 96.5453 46.2292 96.7133 46.3412 96.816C46.4532 96.9187 46.6399 96.97 46.9012 96.97H47.7552ZM50.2927 90.376C49.8727 90.376 49.5274 90.2547 49.2567 90.012C48.9954 89.76 48.8647 89.452 48.8647 89.088C48.8647 88.7147 48.9954 88.4067 49.2567 88.164C49.5274 87.912 49.8727 87.786 50.2927 87.786C50.7034 87.786 51.0394 87.912 51.3007 88.164C51.5714 88.4067 51.7067 88.7147 51.7067 89.088C51.7067 89.452 51.5714 89.76 51.3007 90.012C51.0394 90.2547 50.7034 90.376 50.2927 90.376ZM51.4827 91.188V99H49.0887V91.188H51.4827ZM56.7736 99.112C56.0083 99.112 55.3176 98.9487 54.7016 98.622C54.0949 98.2953 53.6143 97.8287 53.2596 97.222C52.9143 96.6153 52.7416 95.906 52.7416 95.094C52.7416 94.2913 52.9189 93.5867 53.2736 92.98C53.6283 92.364 54.1136 91.8927 54.7296 91.566C55.3456 91.2393 56.0363 91.076 56.8016 91.076C57.5669 91.076 58.2576 91.2393 58.8736 91.566C59.4896 91.8927 59.9749 92.364 60.3296 92.98C60.6843 93.5867 60.8616 94.2913 60.8616 95.094C60.8616 95.8967 60.6796 96.606 60.3156 97.222C59.9609 97.8287 59.4709 98.2953 58.8456 98.622C58.2296 98.9487 57.5389 99.112 56.7736 99.112ZM56.7736 97.04C57.2309 97.04 57.6183 96.872 57.9356 96.536C58.2623 96.2 58.4256 95.7193 58.4256 95.094C58.4256 94.4687 58.2669 93.988 57.9496 93.652C57.6416 93.316 57.2589 93.148 56.8016 93.148C56.3349 93.148 55.9476 93.316 55.6396 93.652C55.3316 93.9787 55.1776 94.4593 55.1776 95.094C55.1776 95.7193 55.3269 96.2 55.6256 96.536C55.9336 96.872 56.3163 97.04 56.7736 97.04ZM66.8917 91.104C67.8063 91.104 68.5343 91.4027 69.0757 92C69.6263 92.588 69.9017 93.4 69.9017 94.436V99H67.5217V94.758C67.5217 94.2353 67.3863 93.8293 67.1157 93.54C66.845 93.2507 66.481 93.106 66.0237 93.106C65.5663 93.106 65.2023 93.2507 64.9317 93.54C64.661 93.8293 64.5257 94.2353 64.5257 94.758V99H62.1317V91.188H64.5257V92.224C64.7683 91.8787 65.095 91.608 65.5057 91.412C65.9163 91.2067 66.3783 91.104 66.8917 91.104ZM74.7433 99.112C74.0619 99.112 73.4553 98.9953 72.9233 98.762C72.3913 98.5287 71.9713 98.2113 71.6633 97.81C71.3553 97.3993 71.1826 96.942 71.1453 96.438H73.5113C73.5393 96.7087 73.6653 96.928 73.8893 97.096C74.1133 97.264 74.3886 97.348 74.7153 97.348C75.0139 97.348 75.2426 97.292 75.4013 97.18C75.5693 97.0587 75.6533 96.9047 75.6533 96.718C75.6533 96.494 75.5366 96.3307 75.3033 96.228C75.0699 96.116 74.6919 95.9947 74.1693 95.864C73.6093 95.7333 73.1426 95.598 72.7693 95.458C72.3959 95.3087 72.0739 95.08 71.8033 94.772C71.5326 94.4547 71.3973 94.03 71.3973 93.498C71.3973 93.05 71.5186 92.644 71.7613 92.28C72.0133 91.9067 72.3773 91.6127 72.8533 91.398C73.3386 91.1833 73.9126 91.076 74.5753 91.076C75.5553 91.076 76.3253 91.3187 76.8853 91.804C77.4546 92.2893 77.7813 92.9333 77.8653 93.736H75.6533C75.6159 93.4653 75.4946 93.2507 75.2893 93.092C75.0933 92.9333 74.8319 92.854 74.5053 92.854C74.2253 92.854 74.0106 92.91 73.8613 93.022C73.7119 93.1247 73.6373 93.2693 73.6373 93.456C73.6373 93.68 73.7539 93.848 73.9873 93.96C74.2299 94.072 74.6033 94.184 75.1073 94.296C75.6859 94.4453 76.1573 94.5947 76.5213 94.744C76.8853 94.884 77.2026 95.1173 77.4733 95.444C77.7533 95.7613 77.8979 96.1907 77.9073 96.732C77.9073 97.1893 77.7766 97.6 77.5153 97.964C77.2633 98.3187 76.8946 98.5987 76.4093 98.804C75.9333 99.0093 75.3779 99.112 74.7433 99.112Z" fill="white"/>
<path d="M112.998 1.92932C112.959 1.10182 112.257 0.462633 111.429 0.501666L97.9443 1.13775C97.1168 1.17678 96.4776 1.87925 96.5167 2.70676C96.5557 3.53427 97.2582 4.17345 98.0857 4.13442L110.072 3.56901L110.638 15.5557C110.677 16.3832 111.379 17.0224 112.207 16.9833C113.034 16.9443 113.673 16.2418 113.634 15.4143L112.998 1.92932ZM62.1095 58.5095L112.609 3.00951L110.391 0.990493L59.8905 56.4905L62.1095 58.5095Z" fill="white"/>
</svg>
