<svg width="136" height="178" viewBox="0 0 136 178" fill="none" xmlns="http://www.w3.org/2000/svg">
<path d="M18.5159 15.098C17.5919 15.098 16.7426 14.8833 15.9679 14.454C15.2026 14.0247 14.5912 13.4273 14.1339 12.662C13.6859 11.8873 13.4619 11.0193 13.4619 10.058C13.4619 9.09667 13.6859 8.23333 14.1339 7.468C14.5912 6.70267 15.2026 6.10533 15.9679 5.676C16.7426 5.24667 17.5919 5.032 18.5159 5.032C19.4399 5.032 20.2846 5.24667 21.0499 5.676C21.8246 6.10533 22.4312 6.70267 22.8699 7.468C23.3179 8.23333 23.5419 9.09667 23.5419 10.058C23.5419 11.0193 23.3179 11.8873 22.8699 12.662C22.4219 13.4273 21.8152 14.0247 21.0499 14.454C20.2846 14.8833 19.4399 15.098 18.5159 15.098ZM18.5159 12.914C19.2999 12.914 19.9252 12.6527 20.3919 12.13C20.8679 11.6073 21.1059 10.9167 21.1059 10.058C21.1059 9.19 20.8679 8.49933 20.3919 7.986C19.9252 7.46333 19.2999 7.202 18.5159 7.202C17.7226 7.202 17.0879 7.45867 16.6119 7.972C16.1452 8.48533 15.9119 9.18067 15.9119 10.058C15.9119 10.926 16.1452 11.6213 16.6119 12.144C17.0879 12.6573 17.7226 12.914 18.5159 12.914ZM32.5878 7.188V15H30.1938V13.936C29.9511 14.2813 29.6198 14.5613 29.1998 14.776C28.7891 14.9813 28.3318 15.084 27.8278 15.084C27.2304 15.084 26.7031 14.9533 26.2458 14.692C25.7884 14.4213 25.4338 14.034 25.1818 13.53C24.9298 13.026 24.8038 12.4333 24.8038 11.752V7.188H27.1838V11.43C27.1838 11.9527 27.3191 12.3587 27.5898 12.648C27.8604 12.9373 28.2244 13.082 28.6818 13.082C29.1484 13.082 29.5171 12.9373 29.7878 12.648C30.0584 12.3587 30.1938 11.9527 30.1938 11.43V7.188H32.5878ZM36.7014 8.49C36.9814 8.06067 37.3314 7.72467 37.7514 7.482C38.1714 7.23 38.638 7.104 39.1514 7.104V9.638H38.4934C37.896 9.638 37.448 9.76867 37.1494 10.03C36.8507 10.282 36.7014 10.73 36.7014 11.374V15H34.3074V7.188H36.7014V8.49ZM53.2304 7.104C54.2011 7.104 54.9711 7.398 55.5404 7.986C56.1191 8.574 56.4084 9.39067 56.4084 10.436V15H54.0284V10.758C54.0284 10.254 53.8931 9.86667 53.6224 9.596C53.3611 9.316 52.9971 9.176 52.5304 9.176C52.0638 9.176 51.6951 9.316 51.4244 9.596C51.1631 9.86667 51.0324 10.254 51.0324 10.758V15H48.6524V10.758C48.6524 10.254 48.5171 9.86667 48.2464 9.596C47.9851 9.316 47.6211 9.176 47.1544 9.176C46.6878 9.176 46.3191 9.316 46.0484 9.596C45.7871 9.86667 45.6564 10.254 45.6564 10.758V15H43.2624V7.188H45.6564V8.168C45.8991 7.84133 46.2164 7.58467 46.6084 7.398C47.0004 7.202 47.4438 7.104 47.9384 7.104C48.5264 7.104 49.0491 7.23 49.5064 7.482C49.9731 7.734 50.3371 8.09333 50.5984 8.56C50.8691 8.13067 51.2378 7.78067 51.7044 7.51C52.1711 7.23933 52.6798 7.104 53.2304 7.104ZM61.6388 15.112C60.8734 15.112 60.1828 14.9487 59.5668 14.622C58.9601 14.2953 58.4794 13.8287 58.1248 13.222C57.7794 12.6153 57.6068 11.906 57.6068 11.094C57.6068 10.2913 57.7841 9.58667 58.1388 8.98C58.4934 8.364 58.9788 7.89267 59.5948 7.566C60.2108 7.23933 60.9014 7.076 61.6668 7.076C62.4321 7.076 63.1228 7.23933 63.7388 7.566C64.3548 7.89267 64.8401 8.364 65.1948 8.98C65.5494 9.58667 65.7268 10.2913 65.7268 11.094C65.7268 11.8967 65.5448 12.606 65.1808 13.222C64.8261 13.8287 64.3361 14.2953 63.7108 14.622C63.0948 14.9487 62.4041 15.112 61.6388 15.112ZM61.6388 13.04C62.0961 13.04 62.4834 12.872 62.8008 12.536C63.1274 12.2 63.2908 11.7193 63.2908 11.094C63.2908 10.4687 63.1321 9.988 62.8148 9.652C62.5068 9.316 62.1241 9.148 61.6668 9.148C61.2001 9.148 60.8128 9.316 60.5048 9.652C60.1968 9.97867 60.0428 10.4593 60.0428 11.094C60.0428 11.7193 60.1921 12.2 60.4908 12.536C60.7988 12.872 61.1814 13.04 61.6388 13.04ZM70.1748 15.112C69.4935 15.112 68.8868 14.9953 68.3548 14.762C67.8228 14.5287 67.4028 14.2113 67.0948 13.81C66.7868 13.3993 66.6142 12.942 66.5768 12.438H68.9428C68.9708 12.7087 69.0968 12.928 69.3208 13.096C69.5448 13.264 69.8202 13.348 70.1468 13.348C70.4455 13.348 70.6742 13.292 70.8328 13.18C71.0008 13.0587 71.0848 12.9047 71.0848 12.718C71.0848 12.494 70.9682 12.3307 70.7348 12.228C70.5015 12.116 70.1235 11.9947 69.6008 11.864C69.0408 11.7333 68.5742 11.598 68.2008 11.458C67.8275 11.3087 67.5055 11.08 67.2348 10.772C66.9642 10.4547 66.8288 10.03 66.8288 9.498C66.8288 9.05 66.9502 8.644 67.1928 8.28C67.4448 7.90667 67.8088 7.61267 68.2848 7.398C68.7702 7.18333 69.3442 7.076 70.0068 7.076C70.9868 7.076 71.7568 7.31867 72.3168 7.804C72.8862 8.28933 73.2128 8.93333 73.2968 9.736H71.0848C71.0475 9.46533 70.9262 9.25067 70.7208 9.092C70.5248 8.93333 70.2635 8.854 69.9368 8.854C69.6568 8.854 69.4422 8.91 69.2928 9.022C69.1435 9.12467 69.0688 9.26933 69.0688 9.456C69.0688 9.68 69.1855 9.848 69.4188 9.96C69.6615 10.072 70.0348 10.184 70.5388 10.296C71.1175 10.4453 71.5888 10.5947 71.9528 10.744C72.3168 10.884 72.6342 11.1173 72.9048 11.444C73.1848 11.7613 73.3295 12.1907 73.3388 12.732C73.3388 13.1893 73.2082 13.6 72.9468 13.964C72.6948 14.3187 72.3262 14.5987 71.8408 14.804C71.3648 15.0093 70.8095 15.112 70.1748 15.112ZM79.1575 12.97V15H77.9395C77.0715 15 76.3948 14.79 75.9095 14.37C75.4241 13.9407 75.1815 13.2453 75.1815 12.284V9.176H74.2295V7.188H75.1815V5.284H77.5755V7.188H79.1435V9.176H77.5755V12.312C77.5755 12.5453 77.6315 12.7133 77.7435 12.816C77.8555 12.9187 78.0421 12.97 78.3035 12.97H79.1575ZM85.8518 8.294C86.0851 7.93 86.4071 7.636 86.8178 7.412C87.2284 7.188 87.7091 7.076 88.2598 7.076C88.9038 7.076 89.4871 7.23933 90.0098 7.566C90.5324 7.89267 90.9431 8.35933 91.2418 8.966C91.5498 9.57267 91.7038 10.2773 91.7038 11.08C91.7038 11.8827 91.5498 12.592 91.2418 13.208C90.9431 13.8147 90.5324 14.286 90.0098 14.622C89.4871 14.9487 88.9038 15.112 88.2598 15.112C87.7184 15.112 87.2378 15 86.8178 14.776C86.4071 14.552 86.0851 14.2627 85.8518 13.908V18.724H83.4578V7.188H85.8518V8.294ZM89.2678 11.08C89.2678 10.4827 89.0998 10.016 88.7638 9.68C88.4371 9.33467 88.0311 9.162 87.5458 9.162C87.0698 9.162 86.6638 9.33467 86.3278 9.68C86.0011 10.0253 85.8378 10.4967 85.8378 11.094C85.8378 11.6913 86.0011 12.1627 86.3278 12.508C86.6638 12.8533 87.0698 13.026 87.5458 13.026C88.0218 13.026 88.4278 12.8533 88.7638 12.508C89.0998 12.1533 89.2678 11.6773 89.2678 11.08ZM95.3537 8.49C95.6337 8.06067 95.9837 7.72467 96.4037 7.482C96.8237 7.23 97.2904 7.104 97.8037 7.104V9.638H97.1457C96.5484 9.638 96.1004 9.76867 95.8017 10.03C95.503 10.282 95.3537 10.73 95.3537 11.374V15H92.9597V7.188H95.3537V8.49ZM106.312 10.968C106.312 11.192 106.298 11.4253 106.27 11.668H100.852C100.889 12.1533 101.043 12.5267 101.314 12.788C101.594 13.04 101.935 13.166 102.336 13.166C102.933 13.166 103.349 12.914 103.582 12.41H106.13C105.999 12.9233 105.761 13.3853 105.416 13.796C105.08 14.2067 104.655 14.5287 104.142 14.762C103.629 14.9953 103.055 15.112 102.42 15.112C101.655 15.112 100.973 14.9487 100.376 14.622C99.7787 14.2953 99.312 13.8287 98.976 13.222C98.64 12.6153 98.472 11.906 98.472 11.094C98.472 10.282 98.6353 9.57267 98.962 8.966C99.298 8.35933 99.7647 7.89267 100.362 7.566C100.959 7.23933 101.645 7.076 102.42 7.076C103.176 7.076 103.848 7.23467 104.436 7.552C105.024 7.86933 105.481 8.322 105.808 8.91C106.144 9.498 106.312 10.184 106.312 10.968ZM103.862 10.338C103.862 9.92733 103.722 9.60067 103.442 9.358C103.162 9.11533 102.812 8.994 102.392 8.994C101.991 8.994 101.65 9.11067 101.37 9.344C101.099 9.57733 100.931 9.90867 100.866 10.338H103.862ZM107.099 11.094C107.099 10.282 107.262 9.57267 107.589 8.966C107.925 8.35933 108.387 7.89267 108.975 7.566C109.572 7.23933 110.254 7.076 111.019 7.076C111.999 7.076 112.816 7.33267 113.469 7.846C114.132 8.35933 114.566 9.08267 114.771 10.016H112.223C112.008 9.41867 111.593 9.12 110.977 9.12C110.538 9.12 110.188 9.29267 109.927 9.638C109.666 9.974 109.535 10.4593 109.535 11.094C109.535 11.7287 109.666 12.2187 109.927 12.564C110.188 12.9 110.538 13.068 110.977 13.068C111.593 13.068 112.008 12.7693 112.223 12.172H114.771C114.566 13.0867 114.132 13.8053 113.469 14.328C112.806 14.8507 111.99 15.112 111.019 15.112C110.254 15.112 109.572 14.9487 108.975 14.622C108.387 14.2953 107.925 13.8287 107.589 13.222C107.262 12.6153 107.099 11.906 107.099 11.094ZM117.256 6.376C116.836 6.376 116.49 6.25467 116.22 6.012C115.958 5.76 115.828 5.452 115.828 5.088C115.828 4.71467 115.958 4.40667 116.22 4.164C116.49 3.912 116.836 3.786 117.256 3.786C117.666 3.786 118.002 3.912 118.264 4.164C118.534 4.40667 118.67 4.71467 118.67 5.088C118.67 5.452 118.534 5.76 118.264 6.012C118.002 6.25467 117.666 6.376 117.256 6.376ZM118.446 7.188V15H116.052V7.188H118.446ZM123.358 15.112C122.677 15.112 122.07 14.9953 121.538 14.762C121.006 14.5287 120.586 14.2113 120.278 13.81C119.97 13.3993 119.798 12.942 119.76 12.438H122.126C122.154 12.7087 122.28 12.928 122.504 13.096C122.728 13.264 123.004 13.348 123.33 13.348C123.629 13.348 123.858 13.292 124.016 13.18C124.184 13.0587 124.268 12.9047 124.268 12.718C124.268 12.494 124.152 12.3307 123.918 12.228C123.685 12.116 123.307 11.9947 122.784 11.864C122.224 11.7333 121.758 11.598 121.384 11.458C121.011 11.3087 120.689 11.08 120.418 10.772C120.148 10.4547 120.012 10.03 120.012 9.498C120.012 9.05 120.134 8.644 120.376 8.28C120.628 7.90667 120.992 7.61267 121.468 7.398C121.954 7.18333 122.528 7.076 123.19 7.076C124.17 7.076 124.94 7.31867 125.5 7.804C126.07 8.28933 126.396 8.93333 126.48 9.736H124.268C124.231 9.46533 124.11 9.25067 123.904 9.092C123.708 8.93333 123.447 8.854 123.12 8.854C122.84 8.854 122.626 8.91 122.476 9.022C122.327 9.12467 122.252 9.26933 122.252 9.456C122.252 9.68 122.369 9.848 122.602 9.96C122.845 10.072 123.218 10.184 123.722 10.296C124.301 10.4453 124.772 10.5947 125.136 10.744C125.5 10.884 125.818 11.1173 126.088 11.444C126.368 11.7613 126.513 12.1907 126.522 12.732C126.522 13.1893 126.392 13.6 126.13 13.964C125.878 14.3187 125.51 14.5987 125.024 14.804C124.548 15.0093 123.993 15.112 123.358 15.112ZM135.351 10.968C135.351 11.192 135.337 11.4253 135.309 11.668H129.891C129.928 12.1533 130.082 12.5267 130.353 12.788C130.633 13.04 130.974 13.166 131.375 13.166C131.972 13.166 132.388 12.914 132.621 12.41H135.169C135.038 12.9233 134.8 13.3853 134.455 13.796C134.119 14.2067 133.694 14.5287 133.181 14.762C132.668 14.9953 132.094 15.112 131.459 15.112C130.694 15.112 130.012 14.9487 129.415 14.622C128.818 14.2953 128.351 13.8287 128.015 13.222C127.679 12.6153 127.511 11.906 127.511 11.094C127.511 10.282 127.674 9.57267 128.001 8.966C128.337 8.35933 128.804 7.89267 129.401 7.566C129.998 7.23933 130.684 7.076 131.459 7.076C132.215 7.076 132.887 7.23467 133.475 7.552C134.063 7.86933 134.52 8.322 134.847 8.91C135.183 9.498 135.351 10.184 135.351 10.968ZM132.901 10.338C132.901 9.92733 132.761 9.60067 132.481 9.358C132.201 9.11533 131.851 8.994 131.431 8.994C131.03 8.994 130.689 9.11067 130.409 9.344C130.138 9.57733 129.97 9.90867 129.905 10.338H132.901ZM13.3919 32.08C13.3919 31.2773 13.5412 30.5727 13.8399 29.966C14.1479 29.3593 14.5632 28.8927 15.0859 28.566C15.6086 28.2393 16.1919 28.076 16.8359 28.076C17.3866 28.076 17.8672 28.188 18.2779 28.412C18.6979 28.636 19.0199 28.93 19.2439 29.294V28.188H21.6379V36H19.2439V34.894C19.0106 35.258 18.6839 35.552 18.2639 35.776C17.8532 36 17.3726 36.112 16.8219 36.112C16.1872 36.112 15.6086 35.9487 15.0859 35.622C14.5632 35.286 14.1479 34.8147 13.8399 34.208C13.5412 33.592 13.3919 32.8827 13.3919 32.08ZM19.2439 32.094C19.2439 31.4967 19.0759 31.0253 18.7399 30.68C18.4132 30.3347 18.0119 30.162 17.5359 30.162C17.0599 30.162 16.6539 30.3347 16.3179 30.68C15.9912 31.016 15.8279 31.4827 15.8279 32.08C15.8279 32.6773 15.9912 33.1533 16.3179 33.508C16.6539 33.8533 17.0599 34.026 17.5359 34.026C18.0119 34.026 18.4132 33.8533 18.7399 33.508C19.0759 33.1627 19.2439 32.6913 19.2439 32.094ZM25.7639 29.49C26.0439 29.0607 26.3939 28.7247 26.8139 28.482C27.2339 28.23 27.7005 28.104 28.2139 28.104V30.638H27.5559C26.9585 30.638 26.5105 30.7687 26.2119 31.03C25.9132 31.282 25.7639 31.73 25.7639 32.374V36H23.3699V28.188H25.7639V29.49ZM39.3261 28.104C40.2968 28.104 41.0668 28.398 41.6361 28.986C42.2148 29.574 42.5041 30.3907 42.5041 31.436V36H40.1241V31.758C40.1241 31.254 39.9888 30.8667 39.7181 30.596C39.4568 30.316 39.0928 30.176 38.6261 30.176C38.1595 30.176 37.7908 30.316 37.5201 30.596C37.2588 30.8667 37.1281 31.254 37.1281 31.758V36H34.7481V31.758C34.7481 31.254 34.6128 30.8667 34.3421 30.596C34.0808 30.316 33.7168 30.176 33.2501 30.176C32.7835 30.176 32.4148 30.316 32.1441 30.596C31.8828 30.8667 31.7521 31.254 31.7521 31.758V36H29.3581V28.188H31.7521V29.168C31.9948 28.8413 32.3121 28.5847 32.7041 28.398C33.0961 28.202 33.5395 28.104 34.0341 28.104C34.6221 28.104 35.1448 28.23 35.6021 28.482C36.0688 28.734 36.4328 29.0933 36.6941 29.56C36.9648 29.1307 37.3335 28.7807 37.8001 28.51C38.2668 28.2393 38.7755 28.104 39.3261 28.104ZM57.1133 28.104C58.0839 28.104 58.8539 28.398 59.4233 28.986C60.0019 29.574 60.2913 30.3907 60.2913 31.436V36H57.9113V31.758C57.9113 31.254 57.7759 30.8667 57.5053 30.596C57.2439 30.316 56.8799 30.176 56.4133 30.176C55.9466 30.176 55.5779 30.316 55.3073 30.596C55.0459 30.8667 54.9153 31.254 54.9153 31.758V36H52.5353V31.758C52.5353 31.254 52.3999 30.8667 52.1293 30.596C51.8679 30.316 51.5039 30.176 51.0373 30.176C50.5706 30.176 50.2019 30.316 49.9313 30.596C49.6699 30.8667 49.5393 31.254 49.5393 31.758V36H47.1453V28.188H49.5393V29.168C49.7819 28.8413 50.0993 28.5847 50.4913 28.398C50.8833 28.202 51.3266 28.104 51.8213 28.104C52.4093 28.104 52.9319 28.23 53.3893 28.482C53.8559 28.734 54.2199 29.0933 54.4813 29.56C54.7519 29.1307 55.1206 28.7807 55.5873 28.51C56.0539 28.2393 56.5626 28.104 57.1133 28.104ZM65.5216 36.112C64.7562 36.112 64.0656 35.9487 63.4496 35.622C62.8429 35.2953 62.3622 34.8287 62.0076 34.222C61.6622 33.6153 61.4896 32.906 61.4896 32.094C61.4896 31.2913 61.6669 30.5867 62.0216 29.98C62.3762 29.364 62.8616 28.8927 63.4776 28.566C64.0936 28.2393 64.7842 28.076 65.5496 28.076C66.3149 28.076 67.0056 28.2393 67.6216 28.566C68.2376 28.8927 68.7229 29.364 69.0776 29.98C69.4322 30.5867 69.6096 31.2913 69.6096 32.094C69.6096 32.8967 69.4276 33.606 69.0636 34.222C68.7089 34.8287 68.2189 35.2953 67.5936 35.622C66.9776 35.9487 66.2869 36.112 65.5216 36.112ZM65.5216 34.04C65.9789 34.04 66.3662 33.872 66.6836 33.536C67.0102 33.2 67.1736 32.7193 67.1736 32.094C67.1736 31.4687 67.0149 30.988 66.6976 30.652C66.3896 30.316 66.0069 30.148 65.5496 30.148C65.0829 30.148 64.6956 30.316 64.3876 30.652C64.0796 30.9787 63.9256 31.4593 63.9256 32.094C63.9256 32.7193 64.0749 33.2 64.3736 33.536C64.6816 33.872 65.0642 34.04 65.5216 34.04ZM70.4036 32.08C70.4036 31.2773 70.553 30.5727 70.8516 29.966C71.1596 29.3593 71.575 28.8927 72.0976 28.566C72.6203 28.2393 73.2036 28.076 73.8476 28.076C74.361 28.076 74.8276 28.1833 75.2476 28.398C75.677 28.6127 76.013 28.902 76.2556 29.266V25.64H78.6496V36H76.2556V34.88C76.0316 35.2533 75.7096 35.552 75.2896 35.776C74.879 36 74.3983 36.112 73.8476 36.112C73.2036 36.112 72.6203 35.9487 72.0976 35.622C71.575 35.286 71.1596 34.8147 70.8516 34.208C70.553 33.592 70.4036 32.8827 70.4036 32.08ZM76.2556 32.094C76.2556 31.4967 76.0876 31.0253 75.7516 30.68C75.425 30.3347 75.0236 30.162 74.5476 30.162C74.0716 30.162 73.6656 30.3347 73.3296 30.68C73.003 31.016 72.8396 31.4827 72.8396 32.08C72.8396 32.6773 73.003 33.1533 73.3296 33.508C73.6656 33.8533 74.0716 34.026 74.5476 34.026C75.0236 34.026 75.425 33.8533 75.7516 33.508C76.0876 33.1627 76.2556 32.6913 76.2556 32.094ZM87.7456 31.968C87.7456 32.192 87.7316 32.4253 87.7036 32.668H82.2856C82.3229 33.1533 82.4769 33.5267 82.7476 33.788C83.0276 34.04 83.3683 34.166 83.7696 34.166C84.3669 34.166 84.7823 33.914 85.0156 33.41H87.5636C87.4329 33.9233 87.1949 34.3853 86.8496 34.796C86.5136 35.2067 86.0889 35.5287 85.5756 35.762C85.0623 35.9953 84.4883 36.112 83.8536 36.112C83.0883 36.112 82.4069 35.9487 81.8096 35.622C81.2123 35.2953 80.7456 34.8287 80.4096 34.222C80.0736 33.6153 79.9056 32.906 79.9056 32.094C79.9056 31.282 80.0689 30.5727 80.3956 29.966C80.7316 29.3593 81.1983 28.8927 81.7956 28.566C82.3929 28.2393 83.0789 28.076 83.8536 28.076C84.6096 28.076 85.2816 28.2347 85.8696 28.552C86.4576 28.8693 86.9149 29.322 87.2416 29.91C87.5776 30.498 87.7456 31.184 87.7456 31.968ZM85.2956 31.338C85.2956 30.9273 85.1556 30.6007 84.8756 30.358C84.5956 30.1153 84.2456 29.994 83.8256 29.994C83.4243 29.994 83.0836 30.1107 82.8036 30.344C82.5329 30.5773 82.3649 30.9087 82.2996 31.338H85.2956ZM91.4025 25.64V36H89.0085V25.64H91.4025Z" fill="white"/>
<path d="M5.85306 166.033C5.31916 166.667 5.39986 167.613 6.0333 168.147L16.3558 176.847C16.9892 177.381 17.9355 177.301 18.4694 176.667C19.0033 176.034 18.9226 175.087 18.2892 174.553L9.11365 166.82L16.8473 157.644C17.3812 157.011 17.3005 156.064 16.6671 155.531C16.0336 154.997 15.0873 155.077 14.5534 155.711L5.85306 166.033ZM57.8338 48.902C63.6282 69.738 67.2672 87.1354 68.4823 101.594C69.698 116.06 68.4769 127.473 64.6556 136.41C57.0932 154.098 39.0027 162.766 6.87256 165.505L7.12745 168.495C39.4973 165.734 59.1567 156.902 67.4141 137.59C71.5027 128.027 72.7089 116.065 71.4718 101.343C70.2341 86.6148 66.5402 69.0123 60.7241 48.0982L57.8338 48.902Z" fill="white"/>
</svg>
